<svg width="80" height="68" viewBox="0 0 80 68" fill="none" xmlns="http://www.w3.org/2000/svg">
<path d="M36 4.2C26.6 12.6 21.9 21.2 21.9 30C21.9 38.6 25.5 45.4 32.7 50.4C32.5 55.2 30.8 59.3 27.6 62.7C24.6 65.9 20.9 67.5 16.5 67.5C5.5 67.5 0 61.5 0 49.5C0 41.3 3 32.4 9 22.8C15.2 13 23.1 5.4 32.7 0L36 4.2ZM79.5 4.2C70.1 12.6 65.4 21.2 65.4 30C65.4 38.6 69 45.4 76.2 50.4C76 55.2 74.3 59.3 71.1 62.7C68.1 65.9 64.4 67.5 60 67.5C49 67.5 43.5 61.5 43.5 49.5C43.5 41.3 46.5 32.4 52.5 22.8C58.7 13 66.6 5.4 76.2 0L79.5 4.2Z" fill="black"/>
</svg>
