<svg width="500" height="500" viewBox="0 0 500 500" fill="none" xmlns="http://www.w3.org/2000/svg">
<rect width="500" height="500" fill="white"/>
<path d="M100 248L118.75 258.833L137.5 248" stroke="black" stroke-width="5" stroke-linecap="round" stroke-linejoin="round"/>
<path d="M139 266.325V232.991C138.998 231.53 138.613 230.095 137.881 228.83C137.15 227.564 136.099 226.514 134.833 225.783L105.667 209.116C104.4 208.385 102.963 208 101.5 208C100.037 208 98.6002 208.385 97.3333 209.116L68.1667 225.783C66.9011 226.514 65.8499 227.564 65.1186 228.83C64.3873 230.095 64.0015 231.53 64 232.991V266.325C64.0015 267.786 64.3873 269.221 65.1186 270.487C65.8499 271.752 66.9011 272.802 68.1667 273.533L97.3333 290.2C98.6002 290.931 100.037 291.316 101.5 291.316C102.963 291.316 104.4 290.931 105.667 290.2L134.833 273.533C136.099 272.802 137.15 271.752 137.881 270.487C138.613 269.221 138.998 267.786 139 266.325Z" stroke="black" stroke-width="5" stroke-linecap="round" stroke-linejoin="round"/>
<path d="M101.75 250.458V228.833L83 218" stroke="black" stroke-width="5" stroke-linecap="round" stroke-linejoin="round"/>
<path d="M101.75 248L83 258.833V280.458" stroke="black" stroke-width="5" stroke-linecap="round" stroke-linejoin="round"/>
<path d="M65.125 228.658L101.5 249.7L137.875 228.658" stroke="black" stroke-width="5" stroke-linecap="round" stroke-linejoin="round"/>
<path d="M101.5 291.658V249.658" stroke="black" stroke-width="5" stroke-linecap="round" stroke-linejoin="round"/>
<path d="M178.776 235.909V265H174.088L160.381 245.185H160.139V265H154.869V235.909H159.585L173.278 255.739H173.534V235.909H178.776ZM193.808 265.426C191.677 265.426 189.83 264.957 188.268 264.02C186.705 263.082 185.493 261.771 184.631 260.085C183.779 258.4 183.353 256.43 183.353 254.176C183.353 251.922 183.779 249.948 184.631 248.253C185.493 246.558 186.705 245.241 188.268 244.304C189.83 243.366 191.677 242.898 193.808 242.898C195.938 242.898 197.785 243.366 199.347 244.304C200.91 245.241 202.117 246.558 202.969 248.253C203.831 249.948 204.262 251.922 204.262 254.176C204.262 256.43 203.831 258.4 202.969 260.085C202.117 261.771 200.91 263.082 199.347 264.02C197.785 264.957 195.938 265.426 193.808 265.426ZM193.836 261.307C194.991 261.307 195.957 260.99 196.734 260.355C197.51 259.711 198.088 258.849 198.467 257.77C198.855 256.69 199.049 255.488 199.049 254.162C199.049 252.827 198.855 251.619 198.467 250.54C198.088 249.451 197.51 248.584 196.734 247.94C195.957 247.296 194.991 246.974 193.836 246.974C192.652 246.974 191.667 247.296 190.881 247.94C190.105 248.584 189.522 249.451 189.134 250.54C188.755 251.619 188.566 252.827 188.566 254.162C188.566 255.488 188.755 256.69 189.134 257.77C189.522 258.849 190.105 259.711 190.881 260.355C191.667 260.99 192.652 261.307 193.836 261.307ZM219.521 243.182V247.159H206.979V243.182H219.521ZM210.075 237.955H215.217V258.438C215.217 259.129 215.321 259.659 215.53 260.028C215.748 260.388 216.032 260.634 216.382 260.767C216.732 260.9 217.121 260.966 217.547 260.966C217.869 260.966 218.162 260.942 218.428 260.895C218.702 260.848 218.911 260.805 219.053 260.767L219.919 264.787C219.644 264.882 219.251 264.986 218.74 265.099C218.238 265.213 217.623 265.279 216.893 265.298C215.606 265.336 214.446 265.142 213.413 264.716C212.381 264.28 211.562 263.608 210.956 262.699C210.359 261.79 210.066 260.653 210.075 259.29V237.955ZM233.246 265.426C231.059 265.426 229.17 264.972 227.579 264.062C225.997 263.144 224.781 261.847 223.928 260.17C223.076 258.485 222.65 256.501 222.65 254.219C222.65 251.974 223.076 250.005 223.928 248.31C224.79 246.605 225.993 245.279 227.536 244.332C229.08 243.376 230.893 242.898 232.977 242.898C234.321 242.898 235.59 243.116 236.783 243.551C237.986 243.977 239.047 244.64 239.965 245.54C240.893 246.439 241.622 247.585 242.153 248.977C242.683 250.36 242.948 252.008 242.948 253.92V255.497H225.065V252.031H238.019C238.01 251.046 237.797 250.17 237.38 249.403C236.963 248.627 236.381 248.016 235.633 247.571C234.894 247.126 234.032 246.903 233.048 246.903C231.996 246.903 231.073 247.159 230.278 247.67C229.482 248.172 228.862 248.835 228.417 249.659C227.981 250.473 227.759 251.368 227.749 252.344V255.369C227.749 256.638 227.981 257.727 228.445 258.636C228.909 259.536 229.558 260.227 230.391 260.71C231.225 261.184 232.2 261.42 233.317 261.42C234.066 261.42 234.743 261.316 235.349 261.108C235.955 260.89 236.48 260.573 236.925 260.156C237.371 259.74 237.707 259.223 237.934 258.608L242.735 259.148C242.432 260.417 241.854 261.525 241.002 262.472C240.159 263.409 239.08 264.138 237.763 264.659C236.447 265.17 234.942 265.426 233.246 265.426ZM264.543 248.949L259.855 249.46C259.723 248.987 259.491 248.542 259.159 248.125C258.837 247.708 258.402 247.372 257.852 247.116C257.303 246.861 256.631 246.733 255.835 246.733C254.765 246.733 253.866 246.965 253.136 247.429C252.417 247.893 252.062 248.494 252.071 249.233C252.062 249.867 252.294 250.384 252.767 250.781C253.25 251.179 254.045 251.506 255.153 251.761L258.875 252.557C260.939 253.002 262.473 253.707 263.477 254.673C264.491 255.639 265.002 256.903 265.011 258.466C265.002 259.839 264.599 261.051 263.804 262.102C263.018 263.144 261.924 263.958 260.523 264.545C259.121 265.133 257.511 265.426 255.693 265.426C253.023 265.426 250.873 264.867 249.244 263.75C247.616 262.623 246.645 261.056 246.332 259.048L251.347 258.565C251.574 259.55 252.057 260.294 252.795 260.795C253.534 261.297 254.495 261.548 255.679 261.548C256.901 261.548 257.881 261.297 258.619 260.795C259.367 260.294 259.741 259.673 259.741 258.935C259.741 258.31 259.5 257.794 259.017 257.386C258.544 256.979 257.805 256.667 256.801 256.449L253.08 255.668C250.987 255.232 249.438 254.498 248.435 253.466C247.431 252.424 246.934 251.108 246.943 249.517C246.934 248.172 247.298 247.008 248.037 246.023C248.785 245.028 249.822 244.261 251.148 243.722C252.483 243.172 254.022 242.898 255.764 242.898C258.321 242.898 260.333 243.442 261.801 244.531C263.278 245.62 264.192 247.093 264.543 248.949ZM269.251 273.182V243.182H274.308V246.79H274.607C274.872 246.259 275.246 245.696 275.729 245.099C276.212 244.493 276.865 243.977 277.689 243.551C278.513 243.116 279.564 242.898 280.842 242.898C282.528 242.898 284.048 243.329 285.402 244.19C286.766 245.043 287.845 246.307 288.641 247.983C289.446 249.65 289.848 251.695 289.848 254.119C289.848 256.515 289.455 258.551 288.669 260.227C287.883 261.903 286.813 263.182 285.459 264.062C284.105 264.943 282.571 265.384 280.857 265.384C279.607 265.384 278.57 265.175 277.746 264.759C276.922 264.342 276.259 263.84 275.757 263.253C275.265 262.656 274.881 262.093 274.607 261.562H274.393V273.182H269.251ZM274.294 254.091C274.294 255.502 274.493 256.738 274.891 257.798C275.298 258.859 275.88 259.687 276.638 260.284C277.405 260.871 278.333 261.165 279.422 261.165C280.558 261.165 281.51 260.862 282.277 260.256C283.044 259.64 283.622 258.802 284.01 257.741C284.408 256.671 284.607 255.455 284.607 254.091C284.607 252.737 284.412 251.534 284.024 250.483C283.636 249.432 283.058 248.608 282.291 248.011C281.524 247.415 280.568 247.116 279.422 247.116C278.323 247.116 277.391 247.405 276.624 247.983C275.857 248.561 275.274 249.37 274.876 250.412C274.488 251.454 274.294 252.68 274.294 254.091ZM300.53 265.44C299.147 265.44 297.902 265.194 296.794 264.702C295.696 264.2 294.824 263.461 294.18 262.486C293.546 261.51 293.229 260.308 293.229 258.878C293.229 257.647 293.456 256.629 293.911 255.824C294.365 255.019 294.985 254.375 295.771 253.892C296.557 253.409 297.443 253.045 298.428 252.798C299.422 252.543 300.449 252.358 301.51 252.244C302.788 252.112 303.825 251.993 304.621 251.889C305.416 251.776 305.994 251.605 306.354 251.378C306.723 251.141 306.908 250.777 306.908 250.284V250.199C306.908 249.129 306.59 248.3 305.956 247.713C305.321 247.126 304.408 246.832 303.214 246.832C301.955 246.832 300.956 247.107 300.217 247.656C299.488 248.205 298.996 248.854 298.74 249.602L293.939 248.92C294.318 247.595 294.943 246.487 295.814 245.597C296.685 244.697 297.75 244.025 299.01 243.58C300.269 243.125 301.661 242.898 303.186 242.898C304.237 242.898 305.284 243.021 306.325 243.267C307.367 243.513 308.319 243.92 309.18 244.489C310.042 245.047 310.733 245.81 311.254 246.776C311.785 247.741 312.05 248.949 312.05 250.398V265H307.107V262.003H306.936C306.624 262.609 306.183 263.177 305.615 263.707C305.056 264.228 304.351 264.65 303.499 264.972C302.656 265.284 301.666 265.44 300.53 265.44ZM301.865 261.662C302.897 261.662 303.792 261.458 304.55 261.051C305.307 260.634 305.89 260.085 306.297 259.403C306.714 258.722 306.922 257.978 306.922 257.173V254.602C306.761 254.735 306.486 254.858 306.098 254.972C305.719 255.085 305.293 255.185 304.82 255.27C304.346 255.355 303.877 255.431 303.413 255.497C302.949 255.563 302.547 255.62 302.206 255.668C301.439 255.772 300.752 255.942 300.146 256.179C299.54 256.416 299.062 256.747 298.712 257.173C298.361 257.59 298.186 258.13 298.186 258.793C298.186 259.74 298.532 260.455 299.223 260.938C299.914 261.42 300.795 261.662 301.865 261.662ZM326.737 265.426C324.559 265.426 322.689 264.948 321.126 263.991C319.573 263.035 318.375 261.714 317.533 260.028C316.699 258.333 316.283 256.383 316.283 254.176C316.283 251.96 316.709 250.005 317.561 248.31C318.413 246.605 319.616 245.279 321.169 244.332C322.732 243.376 324.578 242.898 326.709 242.898C328.48 242.898 330.047 243.224 331.411 243.878C332.784 244.522 333.877 245.436 334.692 246.619C335.506 247.794 335.97 249.167 336.084 250.739H331.169C330.97 249.687 330.497 248.812 329.749 248.111C329.01 247.401 328.02 247.045 326.78 247.045C325.729 247.045 324.805 247.33 324.01 247.898C323.214 248.456 322.594 249.261 322.149 250.312C321.714 251.364 321.496 252.623 321.496 254.091C321.496 255.578 321.714 256.856 322.149 257.926C322.585 258.987 323.196 259.806 323.982 260.384C324.777 260.952 325.71 261.236 326.78 261.236C327.537 261.236 328.214 261.094 328.811 260.81C329.417 260.516 329.924 260.095 330.331 259.545C330.738 258.996 331.018 258.329 331.169 257.543H336.084C335.961 259.086 335.506 260.455 334.72 261.648C333.934 262.831 332.864 263.759 331.51 264.432C330.156 265.095 328.565 265.426 326.737 265.426ZM349.965 265.426C347.778 265.426 345.888 264.972 344.298 264.062C342.716 263.144 341.499 261.847 340.647 260.17C339.795 258.485 339.369 256.501 339.369 254.219C339.369 251.974 339.795 250.005 340.647 248.31C341.509 246.605 342.711 245.279 344.255 244.332C345.799 243.376 347.612 242.898 349.695 242.898C351.04 242.898 352.309 243.116 353.502 243.551C354.705 243.977 355.765 244.64 356.684 245.54C357.612 246.439 358.341 247.585 358.871 248.977C359.402 250.36 359.667 252.008 359.667 253.92V255.497H341.783V252.031H354.738C354.728 251.046 354.515 250.17 354.099 249.403C353.682 248.627 353.1 248.016 352.352 247.571C351.613 247.126 350.751 246.903 349.766 246.903C348.715 246.903 347.792 247.159 346.996 247.67C346.201 248.172 345.581 248.835 345.136 249.659C344.7 250.473 344.478 251.368 344.468 252.344V255.369C344.468 256.638 344.7 257.727 345.164 258.636C345.628 259.536 346.277 260.227 347.11 260.71C347.943 261.184 348.919 261.42 350.036 261.42C350.784 261.42 351.461 261.316 352.067 261.108C352.674 260.89 353.199 260.573 353.644 260.156C354.089 259.74 354.425 259.223 354.653 258.608L359.454 259.148C359.151 260.417 358.573 261.525 357.721 262.472C356.878 263.409 355.799 264.138 354.482 264.659C353.166 265.17 351.66 265.426 349.965 265.426ZM369.159 252.216V265H364.017V235.909H369.045V246.889H369.301C369.813 245.658 370.603 244.687 371.673 243.977C372.753 243.258 374.126 242.898 375.793 242.898C377.308 242.898 378.629 243.215 379.756 243.849C380.883 244.484 381.754 245.412 382.369 246.634C382.994 247.855 383.307 249.347 383.307 251.108V265H378.165V251.903C378.165 250.436 377.786 249.295 377.028 248.48C376.28 247.656 375.229 247.244 373.875 247.244C372.966 247.244 372.152 247.443 371.432 247.841C370.722 248.229 370.163 248.793 369.756 249.531C369.358 250.27 369.159 251.165 369.159 252.216ZM402.455 255.824V243.182H407.597V265H402.611V261.122H402.384C401.891 262.344 401.081 263.343 399.955 264.119C398.837 264.896 397.459 265.284 395.821 265.284C394.391 265.284 393.127 264.967 392.028 264.332C390.939 263.688 390.087 262.756 389.472 261.534C388.856 260.303 388.548 258.816 388.548 257.074V243.182H393.69V256.278C393.69 257.661 394.069 258.759 394.827 259.574C395.584 260.388 396.579 260.795 397.81 260.795C398.567 260.795 399.301 260.611 400.011 260.241C400.722 259.872 401.304 259.323 401.759 258.594C402.223 257.855 402.455 256.932 402.455 255.824ZM413.112 265V235.909H418.254V246.79H418.467C418.732 246.259 419.106 245.696 419.589 245.099C420.072 244.493 420.725 243.977 421.549 243.551C422.373 243.116 423.424 242.898 424.702 242.898C426.388 242.898 427.908 243.329 429.262 244.19C430.626 245.043 431.705 246.307 432.501 247.983C433.306 249.65 433.708 251.695 433.708 254.119C433.708 256.515 433.315 258.551 432.529 260.227C431.743 261.903 430.673 263.182 429.319 264.062C427.965 264.943 426.431 265.384 424.717 265.384C423.467 265.384 422.43 265.175 421.606 264.759C420.782 264.342 420.119 263.84 419.617 263.253C419.125 262.656 418.741 262.093 418.467 261.562H418.168V265H413.112ZM418.154 254.091C418.154 255.502 418.353 256.738 418.751 257.798C419.158 258.859 419.74 259.687 420.498 260.284C421.265 260.871 422.193 261.165 423.282 261.165C424.418 261.165 425.37 260.862 426.137 260.256C426.904 259.64 427.482 258.802 427.87 257.741C428.268 256.671 428.467 255.455 428.467 254.091C428.467 252.737 428.272 251.534 427.884 250.483C427.496 249.432 426.918 248.608 426.151 248.011C425.384 247.415 424.428 247.116 423.282 247.116C422.183 247.116 421.251 247.405 420.484 247.983C419.717 248.561 419.134 249.37 418.737 250.412C418.348 251.454 418.154 252.68 418.154 254.091Z" fill="black"/>
</svg>
