<svg width="375" height="90" viewBox="0 0 375 90" fill="none" xmlns="http://www.w3.org/2000/svg">
<path d="M39 43L57.75 53.8333L76.5 43" stroke="black" stroke-width="5" stroke-linecap="round" stroke-linejoin="round"/>
<path d="M78 61.3248V27.9915C77.9985 26.5301 77.6127 25.0948 76.8814 23.8296C76.1501 22.5644 75.0989 21.5138 73.8333 20.7831L44.6667 4.11645C43.3998 3.38505 41.9628 3 40.5 3C39.0372 3 37.6002 3.38505 36.3333 4.11645L7.16667 20.7831C5.90109 21.5138 4.84992 22.5644 4.11859 23.8296C3.38726 25.0948 3.0015 26.5301 3 27.9915V61.3248C3.0015 62.7861 3.38726 64.2214 4.11859 65.4866C4.84992 66.7518 5.90109 67.8024 7.16667 68.5331L36.3333 85.1998C37.6002 85.9312 39.0372 86.3162 40.5 86.3162C41.9628 86.3162 43.3998 85.9312 44.6667 85.1998L73.8333 68.5331C75.0989 67.8024 76.1501 66.7518 76.8814 65.4866C77.6127 64.2214 77.9985 62.7861 78 61.3248Z" stroke="black" stroke-width="5" stroke-linecap="round" stroke-linejoin="round"/>
<path d="M40.75 45.4583V23.8333L22 13" stroke="black" stroke-width="5" stroke-linecap="round" stroke-linejoin="round"/>
<path d="M40.75 43L22 53.8333V75.4583" stroke="black" stroke-width="5" stroke-linecap="round" stroke-linejoin="round"/>
<path d="M4.125 23.6582L40.5 44.6999L76.875 23.6582" stroke="black" stroke-width="5" stroke-linecap="round" stroke-linejoin="round"/>
<path d="M40.5 86.6582V44.6582" stroke="black" stroke-width="5" stroke-linecap="round" stroke-linejoin="round"/>
<path d="M117.776 30.9091V60H113.088L99.3807 40.1847H99.1392V60H93.8693V30.9091H98.5852L112.278 50.7386H112.534V30.9091H117.776ZM132.808 60.4261C130.677 60.4261 128.83 59.9574 127.268 59.0199C125.705 58.0824 124.493 56.7708 123.631 55.0852C122.779 53.3996 122.353 51.4299 122.353 49.1761C122.353 46.9223 122.779 44.9479 123.631 43.2528C124.493 41.5578 125.705 40.2415 127.268 39.304C128.83 38.3665 130.677 37.8977 132.808 37.8977C134.938 37.8977 136.785 38.3665 138.347 39.304C139.91 40.2415 141.117 41.5578 141.969 43.2528C142.831 44.9479 143.262 46.9223 143.262 49.1761C143.262 51.4299 142.831 53.3996 141.969 55.0852C141.117 56.7708 139.91 58.0824 138.347 59.0199C136.785 59.9574 134.938 60.4261 132.808 60.4261ZM132.836 56.3068C133.991 56.3068 134.957 55.9896 135.734 55.3551C136.51 54.7112 137.088 53.8494 137.467 52.7699C137.855 51.6903 138.049 50.4877 138.049 49.1619C138.049 47.8267 137.855 46.6193 137.467 45.5398C137.088 44.4508 136.51 43.5843 135.734 42.9403C134.957 42.2964 133.991 41.9744 132.836 41.9744C131.652 41.9744 130.667 42.2964 129.881 42.9403C129.105 43.5843 128.522 44.4508 128.134 45.5398C127.755 46.6193 127.566 47.8267 127.566 49.1619C127.566 50.4877 127.755 51.6903 128.134 52.7699C128.522 53.8494 129.105 54.7112 129.881 55.3551C130.667 55.9896 131.652 56.3068 132.836 56.3068ZM158.521 38.1818V42.1591H145.979V38.1818H158.521ZM149.075 32.9545H154.217V53.4375C154.217 54.1288 154.321 54.6591 154.53 55.0284C154.748 55.3883 155.032 55.6345 155.382 55.767C155.732 55.8996 156.121 55.9659 156.547 55.9659C156.869 55.9659 157.162 55.9422 157.428 55.8949C157.702 55.8475 157.911 55.8049 158.053 55.767L158.919 59.7869C158.644 59.8816 158.251 59.9858 157.74 60.0994C157.238 60.2131 156.623 60.2794 155.893 60.2983C154.606 60.3362 153.446 60.142 152.413 59.7159C151.381 59.2803 150.562 58.608 149.956 57.6989C149.359 56.7898 149.066 55.6534 149.075 54.2898V32.9545ZM172.246 60.4261C170.059 60.4261 168.17 59.9716 166.579 59.0625C164.997 58.1439 163.781 56.8466 162.928 55.1705C162.076 53.4848 161.65 51.5009 161.65 49.2188C161.65 46.9744 162.076 45.0047 162.928 43.3097C163.79 41.6051 164.993 40.2794 166.536 39.3324C168.08 38.3759 169.893 37.8977 171.977 37.8977C173.321 37.8977 174.59 38.1155 175.783 38.5511C176.986 38.9773 178.047 39.6402 178.965 40.5398C179.893 41.4394 180.622 42.5852 181.153 43.9773C181.683 45.3598 181.948 47.0076 181.948 48.9205V50.4972H164.065V47.0312H177.019C177.01 46.0464 176.797 45.1705 176.38 44.4034C175.963 43.6269 175.381 43.0161 174.633 42.571C173.894 42.1259 173.032 41.9034 172.048 41.9034C170.996 41.9034 170.073 42.1591 169.278 42.6705C168.482 43.1723 167.862 43.8352 167.417 44.6591C166.981 45.4735 166.759 46.3684 166.749 47.3438V50.3693C166.749 51.6383 166.981 52.7273 167.445 53.6364C167.909 54.536 168.558 55.2273 169.391 55.7102C170.225 56.1837 171.2 56.4205 172.317 56.4205C173.066 56.4205 173.743 56.3163 174.349 56.108C174.955 55.8902 175.48 55.5729 175.925 55.1562C176.371 54.7396 176.707 54.2235 176.934 53.608L181.735 54.1477C181.432 55.4167 180.854 56.5246 180.002 57.4716C179.159 58.4091 178.08 59.1383 176.763 59.6591C175.447 60.1705 173.942 60.4261 172.246 60.4261ZM203.543 43.9489L198.855 44.4602C198.723 43.9867 198.491 43.5417 198.159 43.125C197.837 42.7083 197.402 42.3722 196.852 42.1165C196.303 41.8608 195.631 41.733 194.835 41.733C193.765 41.733 192.866 41.965 192.136 42.429C191.417 42.893 191.062 43.4943 191.071 44.233C191.062 44.8674 191.294 45.3835 191.767 45.7812C192.25 46.179 193.045 46.5057 194.153 46.7614L197.875 47.5568C199.939 48.0019 201.473 48.7074 202.477 49.6733C203.491 50.6392 204.002 51.9034 204.011 53.4659C204.002 54.839 203.599 56.0511 202.804 57.1023C202.018 58.1439 200.924 58.9583 199.523 59.5455C198.121 60.1326 196.511 60.4261 194.693 60.4261C192.023 60.4261 189.873 59.8674 188.244 58.75C186.616 57.6231 185.645 56.0559 185.332 54.0483L190.347 53.5653C190.574 54.5502 191.057 55.2936 191.795 55.7955C192.534 56.2973 193.495 56.5483 194.679 56.5483C195.901 56.5483 196.881 56.2973 197.619 55.7955C198.367 55.2936 198.741 54.6733 198.741 53.9347C198.741 53.3097 198.5 52.7936 198.017 52.3864C197.544 51.9792 196.805 51.6667 195.801 51.4489L192.08 50.6676C189.987 50.232 188.438 49.4981 187.435 48.4659C186.431 47.4242 185.934 46.108 185.943 44.517C185.934 43.1723 186.298 42.0076 187.037 41.0227C187.785 40.0284 188.822 39.2614 190.148 38.7216C191.483 38.1723 193.022 37.8977 194.764 37.8977C197.321 37.8977 199.333 38.4422 200.801 39.5312C202.278 40.6203 203.192 42.0928 203.543 43.9489ZM208.251 68.1818V38.1818H213.308V41.7898H213.607C213.872 41.2595 214.246 40.696 214.729 40.0994C215.212 39.4934 215.865 38.9773 216.689 38.5511C217.513 38.1155 218.564 37.8977 219.842 37.8977C221.528 37.8977 223.048 38.3286 224.402 39.1903C225.766 40.0426 226.845 41.3068 227.641 42.983C228.446 44.6496 228.848 46.6951 228.848 49.1193C228.848 51.5152 228.455 53.5511 227.669 55.2273C226.883 56.9034 225.813 58.1818 224.459 59.0625C223.105 59.9432 221.571 60.3835 219.857 60.3835C218.607 60.3835 217.57 60.1752 216.746 59.7585C215.922 59.3419 215.259 58.84 214.757 58.2528C214.265 57.6562 213.881 57.0928 213.607 56.5625H213.393V68.1818H208.251ZM213.294 49.0909C213.294 50.5019 213.493 51.7377 213.891 52.7983C214.298 53.8589 214.88 54.6875 215.638 55.2841C216.405 55.8712 217.333 56.1648 218.422 56.1648C219.558 56.1648 220.51 55.8617 221.277 55.2557C222.044 54.6402 222.622 53.8021 223.01 52.7415C223.408 51.6714 223.607 50.4545 223.607 49.0909C223.607 47.7367 223.412 46.5341 223.024 45.483C222.636 44.4318 222.058 43.608 221.291 43.0114C220.524 42.4148 219.568 42.1165 218.422 42.1165C217.323 42.1165 216.391 42.4053 215.624 42.983C214.857 43.5606 214.274 44.3703 213.876 45.4119C213.488 46.4536 213.294 47.6799 213.294 49.0909ZM239.53 60.4403C238.147 60.4403 236.902 60.1941 235.794 59.7017C234.696 59.1998 233.824 58.4612 233.18 57.4858C232.546 56.5104 232.229 55.3078 232.229 53.8778C232.229 52.6468 232.456 51.6288 232.911 50.8239C233.365 50.0189 233.985 49.375 234.771 48.892C235.557 48.4091 236.443 48.0445 237.428 47.7983C238.422 47.5426 239.449 47.358 240.51 47.2443C241.788 47.1117 242.825 46.9934 243.621 46.8892C244.416 46.7756 244.994 46.6051 245.354 46.3778C245.723 46.1411 245.908 45.7765 245.908 45.2841V45.1989C245.908 44.1288 245.59 43.3002 244.956 42.7131C244.321 42.1259 243.408 41.8324 242.214 41.8324C240.955 41.8324 239.956 42.107 239.217 42.6562C238.488 43.2055 237.996 43.8542 237.74 44.6023L232.939 43.9205C233.318 42.5947 233.943 41.4867 234.814 40.5966C235.685 39.697 236.75 39.0246 238.01 38.5795C239.269 38.125 240.661 37.8977 242.186 37.8977C243.237 37.8977 244.284 38.0208 245.325 38.267C246.367 38.5133 247.319 38.9205 248.18 39.4886C249.042 40.0473 249.733 40.8097 250.254 41.7756C250.785 42.7415 251.05 43.9489 251.05 45.3977V60H246.107V57.0028H245.936C245.624 57.6089 245.183 58.1771 244.615 58.7074C244.056 59.2282 243.351 59.6496 242.499 59.9716C241.656 60.2841 240.666 60.4403 239.53 60.4403ZM240.865 56.6619C241.897 56.6619 242.792 56.4583 243.55 56.0511C244.307 55.6345 244.89 55.0852 245.297 54.4034C245.714 53.7216 245.922 52.9782 245.922 52.1733V49.6023C245.761 49.7348 245.486 49.858 245.098 49.9716C244.719 50.0852 244.293 50.1847 243.82 50.2699C243.346 50.3551 242.877 50.4309 242.413 50.4972C241.949 50.5634 241.547 50.6203 241.206 50.6676C240.439 50.7718 239.752 50.9422 239.146 51.179C238.54 51.4157 238.062 51.7472 237.712 52.1733C237.361 52.59 237.186 53.1297 237.186 53.7926C237.186 54.7396 237.532 55.4545 238.223 55.9375C238.914 56.4205 239.795 56.6619 240.865 56.6619ZM265.737 60.4261C263.559 60.4261 261.689 59.9479 260.126 58.9915C258.573 58.035 257.375 56.714 256.533 55.0284C255.699 53.3333 255.283 51.3826 255.283 49.1761C255.283 46.9602 255.709 45.0047 256.561 43.3097C257.413 41.6051 258.616 40.2794 260.169 39.3324C261.732 38.3759 263.578 37.8977 265.709 37.8977C267.48 37.8977 269.047 38.2244 270.411 38.8778C271.784 39.5218 272.877 40.4356 273.692 41.6193C274.506 42.7936 274.97 44.1667 275.084 45.7386H270.169C269.97 44.6875 269.497 43.8116 268.749 43.1108C268.01 42.4006 267.02 42.0455 265.78 42.0455C264.729 42.0455 263.805 42.3295 263.01 42.8977C262.214 43.4564 261.594 44.2614 261.149 45.3125C260.714 46.3636 260.496 47.6231 260.496 49.0909C260.496 50.5777 260.714 51.8561 261.149 52.9261C261.585 53.9867 262.196 54.8059 262.982 55.3835C263.777 55.9517 264.71 56.2358 265.78 56.2358C266.537 56.2358 267.214 56.0937 267.811 55.8097C268.417 55.5161 268.924 55.0947 269.331 54.5455C269.738 53.9962 270.018 53.3286 270.169 52.5426H275.084C274.961 54.0862 274.506 55.4545 273.72 56.6477C272.934 57.8314 271.864 58.7595 270.51 59.4318C269.156 60.0947 267.565 60.4261 265.737 60.4261ZM288.965 60.4261C286.778 60.4261 284.888 59.9716 283.298 59.0625C281.716 58.1439 280.499 56.8466 279.647 55.1705C278.795 53.4848 278.369 51.5009 278.369 49.2188C278.369 46.9744 278.795 45.0047 279.647 43.3097C280.509 41.6051 281.711 40.2794 283.255 39.3324C284.799 38.3759 286.612 37.8977 288.695 37.8977C290.04 37.8977 291.309 38.1155 292.502 38.5511C293.705 38.9773 294.765 39.6402 295.684 40.5398C296.612 41.4394 297.341 42.5852 297.871 43.9773C298.402 45.3598 298.667 47.0076 298.667 48.9205V50.4972H280.783V47.0312H293.738C293.728 46.0464 293.515 45.1705 293.099 44.4034C292.682 43.6269 292.1 43.0161 291.352 42.571C290.613 42.1259 289.751 41.9034 288.766 41.9034C287.715 41.9034 286.792 42.1591 285.996 42.6705C285.201 43.1723 284.581 43.8352 284.136 44.6591C283.7 45.4735 283.478 46.3684 283.468 47.3438V50.3693C283.468 51.6383 283.7 52.7273 284.164 53.6364C284.628 54.536 285.277 55.2273 286.11 55.7102C286.943 56.1837 287.919 56.4205 289.036 56.4205C289.784 56.4205 290.461 56.3163 291.067 56.108C291.674 55.8902 292.199 55.5729 292.644 55.1562C293.089 54.7396 293.425 54.2235 293.653 53.608L298.454 54.1477C298.151 55.4167 297.573 56.5246 296.721 57.4716C295.878 58.4091 294.799 59.1383 293.482 59.6591C292.166 60.1705 290.66 60.4261 288.965 60.4261ZM308.159 47.2159V60H303.017V30.9091H308.045V41.8892H308.301C308.813 40.6581 309.603 39.6875 310.673 38.9773C311.753 38.2576 313.126 37.8977 314.793 37.8977C316.308 37.8977 317.629 38.215 318.756 38.8494C319.883 39.4839 320.754 40.4119 321.369 41.6335C321.994 42.8551 322.307 44.3466 322.307 46.108V60H317.165V46.9034C317.165 45.4356 316.786 44.2945 316.028 43.4801C315.28 42.6562 314.229 42.2443 312.875 42.2443C311.966 42.2443 311.152 42.4432 310.432 42.8409C309.722 43.2292 309.163 43.7926 308.756 44.5312C308.358 45.2699 308.159 46.1648 308.159 47.2159ZM341.455 50.8239V38.1818H346.597V60H341.611V56.1222H341.384C340.891 57.3437 340.081 58.3428 338.955 59.1193C337.837 59.8958 336.459 60.2841 334.821 60.2841C333.391 60.2841 332.127 59.9669 331.028 59.3324C329.939 58.6884 329.087 57.7557 328.472 56.5341C327.856 55.303 327.548 53.8163 327.548 52.0739V38.1818H332.69V51.2784C332.69 52.661 333.069 53.7595 333.827 54.5739C334.584 55.3883 335.579 55.7955 336.81 55.7955C337.567 55.7955 338.301 55.6108 339.011 55.2415C339.722 54.8722 340.304 54.3229 340.759 53.5938C341.223 52.8551 341.455 51.9318 341.455 50.8239ZM352.112 60V30.9091H357.254V41.7898H357.467C357.732 41.2595 358.106 40.696 358.589 40.0994C359.072 39.4934 359.725 38.9773 360.549 38.5511C361.373 38.1155 362.424 37.8977 363.702 37.8977C365.388 37.8977 366.908 38.3286 368.262 39.1903C369.626 40.0426 370.705 41.3068 371.501 42.983C372.306 44.6496 372.708 46.6951 372.708 49.1193C372.708 51.5152 372.315 53.5511 371.529 55.2273C370.743 56.9034 369.673 58.1818 368.319 59.0625C366.965 59.9432 365.431 60.3835 363.717 60.3835C362.467 60.3835 361.43 60.1752 360.606 59.7585C359.782 59.3419 359.119 58.84 358.617 58.2528C358.125 57.6562 357.741 57.0928 357.467 56.5625H357.168V60H352.112ZM357.154 49.0909C357.154 50.5019 357.353 51.7377 357.751 52.7983C358.158 53.8589 358.74 54.6875 359.498 55.2841C360.265 55.8712 361.193 56.1648 362.282 56.1648C363.418 56.1648 364.37 55.8617 365.137 55.2557C365.904 54.6402 366.482 53.8021 366.87 52.7415C367.268 51.6714 367.467 50.4545 367.467 49.0909C367.467 47.7367 367.272 46.5341 366.884 45.483C366.496 44.4318 365.918 43.608 365.151 43.0114C364.384 42.4148 363.428 42.1165 362.282 42.1165C361.183 42.1165 360.251 42.4053 359.484 42.983C358.717 43.5606 358.134 44.3703 357.737 45.4119C357.348 46.4536 357.154 47.6799 357.154 49.0909Z" fill="black"/>
</svg>
